<svg width="96" height="96" viewBox="0 0 96 96" fill="none" xmlns="http://www.w3.org/2000/svg">
  <rect width="96" height="96" rx="48" fill="#6F7F4F"/>
  <path d="M29 27.5C29 25.8431 30.3431 24.5 32 24.5H50.2C58.3738 24.5 64.2 29.4977 64.2 36.55C64.2 41.1173 61.8288 44.5394 58.0846 46.3269C62.9673 47.9502 66.05 51.9798 66.05 57.35C66.05 65.2155 59.5903 71.5 50.55 71.5H32C30.3431 71.5 29 70.1569 29 68.5V27.5ZM39.15 43.1H49.3C52.2888 43.1 54.05 41.2781 54.05 38.65C54.05 36.0833 52.2046 34.4 49.15 34.4H39.15V43.1ZM39.15 61.55H50.05C53.5909 61.55 55.7 59.5488 55.7 56.5C55.7 53.4539 53.5381 51.45 49.9 51.45H39.15V61.55Z" fill="#FFFAF0"/>
  <path d="M69.5 22.5C62.3 23.15 57.05 27.45 55.5 34.25C62.7 33.55 68.05 29.2 69.5 22.5Z" fill="#D8CDB8"/>
</svg>
